<svg xmlns="http://www.w3.org/2000/svg"
     xmlns:xlink="http://www.w3.org/1999/xlink" width="559" zoomAndPan="magnify"
     viewBox="0 0 419.25 250.499992" height="334"
     preserveAspectRatio="xMidYMid meet" version="1.0">
  <defs>
    <g/>
    <clipPath id="67c7319863">
      <path
        d="M 0.0585938 0.144531 L 417.726562 0.144531 L 417.726562 249.90625 L 0.0585938 249.90625 Z M 0.0585938 0.144531 "
        clip-rule="nonzero"/>
    </clipPath>
  </defs>
  <g clip-path="url(#67c7319863)">
    <path fill="#760504"
          d="M 417.90625 -0.0273438 C 308.832031 104.5625 155.382812 177.023438 0.0585938 223.296875 C 44.609375 214.277344 103.316406 200.152344 113.917969 225.65625 C 116.675781 232.296875 119.121094 240.785156 123.800781 250.035156 C 197.367188 220.28125 342.617188 103.582031 417.90625 -0.0273438 Z M 417.90625 -0.0273438 "
          fill-opacity="1" fill-rule="evenodd"/>
  </g>
  <path fill="#d0483a"
        d="M 379.675781 30.3125 C 237.761719 99.320312 121.757812 98.335938 34.664062 61.78125 C 54.882812 77.847656 84.03125 96.082031 57.871094 136.226562 C 51.0625 146.675781 42.113281 159.347656 32.8125 174.429688 C 82.84375 181.453125 246.53125 119.203125 379.675781 30.3125 Z M 379.675781 30.3125 "
        fill-opacity="1" fill-rule="evenodd"/>
  <g fill="#090a0e" fill-opacity="1">
    <g transform="translate(63.46102, 59.428428)">
      <g>
        <path
          d="M 11.6875 -5.03125 C 11.59375 -4.582031 11.425781 -4.179688 11.1875 -3.828125 C 10.957031 -3.472656 10.648438 -3.191406 10.265625 -2.984375 C 9.890625 -2.773438 9.441406 -2.648438 8.921875 -2.609375 C 8.398438 -2.578125 7.800781 -2.640625 7.125 -2.796875 L 4.1875 -3.46875 L 3.21875 0.734375 L 1.3125 0.296875 L 3.84375 -10.71875 L 8.6875 -9.609375 C 9.363281 -9.453125 9.925781 -9.238281 10.375 -8.96875 C 10.832031 -8.695312 11.179688 -8.382812 11.421875 -8.03125 C 11.671875 -7.675781 11.820312 -7.289062 11.875 -6.875 C 11.9375 -6.457031 11.914062 -6.019531 11.8125 -5.5625 Z M 9.921875 -6.015625 C 10.015625 -6.453125 9.957031 -6.835938 9.75 -7.171875 C 9.539062 -7.515625 9.109375 -7.757812 8.453125 -7.90625 L 5.359375 -8.625 L 4.546875 -5.03125 L 7.671875 -4.3125 C 8.328125 -4.164062 8.816406 -4.203125 9.140625 -4.421875 C 9.460938 -4.648438 9.675781 -4.988281 9.78125 -5.4375 Z M 9.921875 -6.015625 "/>
      </g>
    </g>
  </g>
  <g fill="#090a0e" fill-opacity="1">
    <g transform="translate(74.260479, 61.874845)">
      <g>
        <path
          d="M 1.3125 0.28125 L 3.640625 -10.78125 L 5.546875 -10.390625 L 3.21875 0.671875 Z M 1.3125 0.28125 "/>
      </g>
    </g>
  </g>
  <g fill="#090a0e" fill-opacity="1">
    <g transform="translate(78.880765, 62.869742)">
      <g>
        <path
          d="M 1.3125 0.25 L 3.4375 -10.84375 L 5.359375 -10.46875 L 3.5625 -1.046875 L 9.984375 0.1875 L 9.65625 1.859375 Z M 1.3125 0.25 "/>
      </g>
    </g>
  </g>
  <g fill="#090a0e" fill-opacity="1">
    <g transform="translate(89.080236, 64.838499)">
      <g>
        <path
          d="M 11.734375 -2.53125 C 11.628906 -1.914062 11.414062 -1.34375 11.09375 -0.8125 C 10.78125 -0.289062 10.375 0.148438 9.875 0.515625 C 9.375 0.890625 8.785156 1.15625 8.109375 1.3125 C 7.441406 1.46875 6.707031 1.476562 5.90625 1.34375 C 5.09375 1.207031 4.394531 0.957031 3.8125 0.59375 C 3.226562 0.226562 2.753906 -0.203125 2.390625 -0.703125 C 2.035156 -1.210938 1.789062 -1.769531 1.65625 -2.375 C 1.53125 -2.976562 1.519531 -3.585938 1.625 -4.203125 L 2.03125 -6.640625 C 2.132812 -7.273438 2.34375 -7.859375 2.65625 -8.390625 C 2.976562 -8.929688 3.390625 -9.378906 3.890625 -9.734375 C 4.398438 -10.097656 4.988281 -10.351562 5.65625 -10.5 C 6.320312 -10.644531 7.0625 -10.648438 7.875 -10.515625 C 8.675781 -10.378906 9.367188 -10.132812 9.953125 -9.78125 C 10.546875 -9.425781 11.019531 -9 11.375 -8.5 C 11.726562 -8.007812 11.96875 -7.457031 12.09375 -6.84375 C 12.226562 -6.226562 12.242188 -5.601562 12.140625 -4.96875 Z M 10.203125 -5.3125 C 10.273438 -5.726562 10.269531 -6.128906 10.1875 -6.515625 C 10.113281 -6.910156 9.96875 -7.265625 9.75 -7.578125 C 9.539062 -7.898438 9.253906 -8.164062 8.890625 -8.375 C 8.535156 -8.59375 8.101562 -8.742188 7.59375 -8.828125 C 7.070312 -8.910156 6.601562 -8.90625 6.1875 -8.8125 C 5.78125 -8.726562 5.421875 -8.570312 5.109375 -8.34375 C 4.804688 -8.125 4.5625 -7.835938 4.375 -7.484375 C 4.1875 -7.140625 4.054688 -6.757812 3.984375 -6.34375 L 3.578125 -3.875 C 3.503906 -3.46875 3.503906 -3.070312 3.578125 -2.6875 C 3.648438 -2.300781 3.789062 -1.941406 4 -1.609375 C 4.21875 -1.285156 4.503906 -1.015625 4.859375 -0.796875 C 5.222656 -0.578125 5.664062 -0.425781 6.1875 -0.34375 C 6.695312 -0.257812 7.15625 -0.265625 7.5625 -0.359375 C 7.976562 -0.453125 8.335938 -0.613281 8.640625 -0.84375 C 8.953125 -1.082031 9.203125 -1.375 9.390625 -1.71875 C 9.585938 -2.0625 9.722656 -2.4375 9.796875 -2.84375 Z M 10.203125 -5.3125 "/>
      </g>
    </g>
  </g>
  <g fill="#090a0e" fill-opacity="1">
    <g transform="translate(101.1412, 66.82081)">
      <g>
        <path
          d="M 7.625 -8.640625 L 6.3125 0.875 L 4.375 0.609375 L 5.6875 -8.90625 L 1.890625 -9.4375 L 2.125 -11.109375 L 11.6875 -9.796875 L 11.453125 -8.125 Z M 7.625 -8.640625 "/>
      </g>
    </g>
  </g>
  <g fill="#090a0e" fill-opacity="1">
    <g transform="translate(111.943744, 68.281254)">
      <g/>
    </g>
  </g>
  <g fill="#090a0e" fill-opacity="1">
    <g transform="translate(116.420086, 68.849195)">
      <g>
        <path
          d="M 9.703125 1.046875 C 9.179688 0.992188 8.828125 0.804688 8.640625 0.484375 C 8.453125 0.171875 8.378906 -0.273438 8.421875 -0.859375 L 8.546875 -2.34375 C 8.554688 -2.59375 8.539062 -2.816406 8.5 -3.015625 C 8.457031 -3.210938 8.367188 -3.378906 8.234375 -3.515625 C 8.097656 -3.660156 7.90625 -3.773438 7.65625 -3.859375 C 7.40625 -3.953125 7.085938 -4.019531 6.703125 -4.0625 L 3.75 -4.359375 L 3.28125 0.328125 L 1.34375 0.140625 L 2.484375 -11.09375 L 7.421875 -10.59375 C 8.117188 -10.53125 8.707031 -10.398438 9.1875 -10.203125 C 9.675781 -10.003906 10.066406 -9.757812 10.359375 -9.46875 C 10.660156 -9.1875 10.867188 -8.859375 10.984375 -8.484375 C 11.097656 -8.109375 11.132812 -7.703125 11.09375 -7.265625 L 11.046875 -6.890625 C 10.984375 -6.285156 10.765625 -5.773438 10.390625 -5.359375 C 10.023438 -4.941406 9.398438 -4.695312 8.515625 -4.625 C 8.941406 -4.539062 9.289062 -4.414062 9.5625 -4.25 C 9.832031 -4.082031 10.039062 -3.890625 10.1875 -3.671875 C 10.34375 -3.453125 10.441406 -3.207031 10.484375 -2.9375 C 10.535156 -2.664062 10.546875 -2.390625 10.515625 -2.109375 L 10.40625 -0.78125 C 10.375 -0.507812 10.394531 -0.273438 10.46875 -0.078125 C 10.539062 0.109375 10.679688 0.285156 10.890625 0.453125 L 10.828125 1.15625 Z M 9.09375 -7.34375 C 9.113281 -7.53125 9.097656 -7.710938 9.046875 -7.890625 C 9.003906 -8.078125 8.921875 -8.242188 8.796875 -8.390625 C 8.671875 -8.535156 8.488281 -8.65625 8.25 -8.75 C 8.019531 -8.851562 7.738281 -8.921875 7.40625 -8.953125 L 4.25 -9.28125 L 3.90625 -5.796875 L 7.0625 -5.46875 C 7.675781 -5.40625 8.144531 -5.5 8.46875 -5.75 C 8.800781 -6.007812 8.992188 -6.367188 9.046875 -6.828125 Z M 9.09375 -7.34375 "/>
      </g>
    </g>
  </g>
  <g fill="#090a0e" fill-opacity="1">
    <g transform="translate(127.950186, 70.005689)">
      <g>
        <path
          d="M 1.34375 0.09375 L 2.1875 -11.171875 L 10.328125 -10.546875 L 10.203125 -8.859375 L 4 -9.328125 L 3.78125 -6.40625 L 8.453125 -6.0625 L 8.328125 -4.453125 L 3.65625 -4.796875 L 3.40625 -1.453125 L 9.609375 -0.984375 L 9.484375 0.71875 Z M 1.34375 0.09375 "/>
      </g>
    </g>
  </g>
  <g fill="#090a0e" fill-opacity="1">
    <g transform="translate(138.369149, 70.794397)">
      <g>
        <path
          d="M 10.640625 -6.984375 C 10.617188 -6.523438 10.519531 -6.101562 10.34375 -5.71875 C 10.175781 -5.332031 9.921875 -5.003906 9.578125 -4.734375 C 9.242188 -4.460938 8.820312 -4.257812 8.3125 -4.125 C 7.8125 -4 7.210938 -3.957031 6.515625 -4 L 3.515625 -4.140625 L 3.296875 0.171875 L 1.34375 0.0625 L 1.921875 -11.21875 L 6.875 -10.96875 C 7.570312 -10.925781 8.164062 -10.8125 8.65625 -10.625 C 9.144531 -10.445312 9.539062 -10.203125 9.84375 -9.890625 C 10.15625 -9.585938 10.375 -9.234375 10.5 -8.828125 C 10.632812 -8.429688 10.691406 -8 10.671875 -7.53125 Z M 8.703125 -7.640625 C 8.722656 -8.085938 8.601562 -8.460938 8.34375 -8.765625 C 8.082031 -9.066406 7.613281 -9.234375 6.9375 -9.265625 L 3.78125 -9.421875 L 3.59375 -5.75 L 6.796875 -5.59375 C 7.460938 -5.5625 7.9375 -5.679688 8.21875 -5.953125 C 8.5 -6.222656 8.648438 -6.585938 8.671875 -7.046875 Z M 8.703125 -7.640625 "/>
      </g>
    </g>
  </g>
  <g fill="#090a0e" fill-opacity="1">
    <g transform="translate(149.476461, 71.361702)">
      <g>
        <path
          d="M 11.28125 -4.15625 C 11.257812 -3.53125 11.128906 -2.929688 10.890625 -2.359375 C 10.648438 -1.785156 10.304688 -1.28125 9.859375 -0.84375 C 9.421875 -0.414062 8.875 -0.0820312 8.21875 0.15625 C 7.570312 0.40625 6.84375 0.519531 6.03125 0.5 C 5.207031 0.476562 4.484375 0.328125 3.859375 0.046875 C 3.234375 -0.222656 2.707031 -0.582031 2.28125 -1.03125 C 1.851562 -1.488281 1.53125 -2.007812 1.3125 -2.59375 C 1.101562 -3.175781 1.007812 -3.78125 1.03125 -4.40625 L 1.078125 -6.875 C 1.097656 -7.519531 1.222656 -8.128906 1.453125 -8.703125 C 1.691406 -9.273438 2.035156 -9.769531 2.484375 -10.1875 C 2.929688 -10.613281 3.476562 -10.945312 4.125 -11.1875 C 4.769531 -11.425781 5.503906 -11.535156 6.328125 -11.515625 C 7.140625 -11.492188 7.859375 -11.347656 8.484375 -11.078125 C 9.117188 -10.804688 9.644531 -10.445312 10.0625 -10 C 10.488281 -9.5625 10.8125 -9.050781 11.03125 -8.46875 C 11.25 -7.882812 11.347656 -7.269531 11.328125 -6.625 Z M 9.359375 -6.6875 C 9.367188 -7.101562 9.3125 -7.5 9.1875 -7.875 C 9.0625 -8.257812 8.867188 -8.59375 8.609375 -8.875 C 8.347656 -9.15625 8.023438 -9.378906 7.640625 -9.546875 C 7.253906 -9.710938 6.800781 -9.800781 6.28125 -9.8125 C 5.757812 -9.820312 5.300781 -9.753906 4.90625 -9.609375 C 4.507812 -9.460938 4.175781 -9.253906 3.90625 -8.984375 C 3.632812 -8.710938 3.425781 -8.390625 3.28125 -8.015625 C 3.132812 -7.648438 3.054688 -7.257812 3.046875 -6.84375 L 3 -4.34375 C 2.988281 -3.925781 3.046875 -3.53125 3.171875 -3.15625 C 3.296875 -2.78125 3.488281 -2.445312 3.75 -2.15625 C 4.007812 -1.875 4.332031 -1.644531 4.71875 -1.46875 C 5.101562 -1.300781 5.554688 -1.210938 6.078125 -1.203125 C 6.597656 -1.191406 7.054688 -1.257812 7.453125 -1.40625 C 7.847656 -1.5625 8.179688 -1.773438 8.453125 -2.046875 C 8.722656 -2.328125 8.929688 -2.648438 9.078125 -3.015625 C 9.222656 -3.378906 9.300781 -3.769531 9.3125 -4.1875 Z M 9.359375 -6.6875 "/>
      </g>
    </g>
  </g>
  <g fill="#090a0e" fill-opacity="1">
    <g transform="translate(161.700222, 71.644334)">
      <g>
        <path
          d="M 9.75 0.03125 C 9.226562 0.03125 8.859375 -0.113281 8.640625 -0.40625 C 8.429688 -0.707031 8.316406 -1.148438 8.296875 -1.734375 L 8.25 -3.21875 C 8.238281 -3.46875 8.203125 -3.6875 8.140625 -3.875 C 8.078125 -4.070312 7.96875 -4.234375 7.8125 -4.359375 C 7.664062 -4.484375 7.460938 -4.578125 7.203125 -4.640625 C 6.953125 -4.710938 6.632812 -4.75 6.25 -4.75 L 3.28125 -4.734375 L 3.296875 -0.015625 L 1.34375 0 L 1.296875 -11.296875 L 6.265625 -11.328125 C 6.960938 -11.328125 7.5625 -11.253906 8.0625 -11.109375 C 8.570312 -10.960938 8.988281 -10.757812 9.3125 -10.5 C 9.644531 -10.238281 9.882812 -9.929688 10.03125 -9.578125 C 10.1875 -9.222656 10.265625 -8.828125 10.265625 -8.390625 L 10.265625 -8.015625 C 10.265625 -7.398438 10.101562 -6.863281 9.78125 -6.40625 C 9.457031 -5.957031 8.863281 -5.65625 8 -5.5 C 8.425781 -5.457031 8.78125 -5.363281 9.0625 -5.21875 C 9.351562 -5.082031 9.582031 -4.910156 9.75 -4.703125 C 9.925781 -4.503906 10.050781 -4.273438 10.125 -4.015625 C 10.195312 -3.753906 10.234375 -3.484375 10.234375 -3.203125 L 10.265625 -1.875 C 10.265625 -1.59375 10.304688 -1.359375 10.390625 -1.171875 C 10.484375 -0.992188 10.648438 -0.832031 10.890625 -0.6875 L 10.890625 0.015625 Z M 8.28125 -8.265625 C 8.28125 -8.453125 8.25 -8.628906 8.1875 -8.796875 C 8.125 -8.972656 8.019531 -9.125 7.875 -9.25 C 7.726562 -9.382812 7.535156 -9.488281 7.296875 -9.5625 C 7.054688 -9.644531 6.769531 -9.6875 6.4375 -9.6875 L 3.265625 -9.671875 L 3.265625 -6.171875 L 6.4375 -6.1875 C 7.050781 -6.1875 7.507812 -6.328125 7.8125 -6.609375 C 8.125 -6.898438 8.28125 -7.28125 8.28125 -7.75 Z M 8.28125 -8.265625 "/>
      </g>
    </g>
  </g>
  <g fill="#090a0e" fill-opacity="1">
    <g transform="translate(173.291341, 71.593778)">
      <g>
        <path
          d="M 6.09375 -9.796875 L 6.375 -0.1875 L 4.421875 -0.125 L 4.140625 -9.734375 L 0.296875 -9.625 L 0.234375 -11.3125 L 9.890625 -11.609375 L 9.953125 -9.921875 Z M 6.09375 -9.796875 "/>
      </g>
    </g>
  </g>
  <g fill="#090a0e" fill-opacity="1">
    <g transform="translate(184.187799, 71.24026)">
      <g>
        <path
          d="M 1.34375 -0.0625 L 0.796875 -11.34375 L 2.75 -11.4375 L 3.296875 -0.15625 Z M 1.34375 -0.0625 "/>
      </g>
    </g>
  </g>
  <g fill="#090a0e" fill-opacity="1">
    <g transform="translate(188.924139, 71.050724)">
      <g>
        <path
          d="M 9.453125 -0.640625 L 3.703125 -6.984375 L 2.6875 -8.21875 L 3.234375 -0.21875 L 1.34375 -0.09375 L 0.578125 -11.359375 L 2.28125 -11.46875 L 7.875 -5.0625 L 8.875 -3.875 L 8.328125 -11.875 L 10.21875 -12.015625 L 10.984375 -0.75 Z M 9.453125 -0.640625 "/>
      </g>
    </g>
  </g>
  <g fill="#090a0e" fill-opacity="1">
    <g transform="translate(201.39846, 70.200529)">
      <g>
        <path
          d="M 9.734375 -0.9375 L 9.28125 -2.234375 C 8.945312 -1.671875 8.5 -1.207031 7.9375 -0.84375 C 7.375 -0.488281 6.703125 -0.273438 5.921875 -0.203125 C 5.128906 -0.128906 4.40625 -0.191406 3.75 -0.390625 C 3.101562 -0.585938 2.550781 -0.890625 2.09375 -1.296875 C 1.632812 -1.703125 1.265625 -2.191406 0.984375 -2.765625 C 0.710938 -3.347656 0.546875 -3.976562 0.484375 -4.65625 L 0.28125 -6.703125 C 0.21875 -7.378906 0.273438 -8.03125 0.453125 -8.65625 C 0.640625 -9.28125 0.929688 -9.84375 1.328125 -10.34375 C 1.734375 -10.84375 2.253906 -11.253906 2.890625 -11.578125 C 3.523438 -11.910156 4.257812 -12.117188 5.09375 -12.203125 C 5.707031 -12.265625 6.265625 -12.25 6.765625 -12.15625 C 7.265625 -12.070312 7.71875 -11.921875 8.125 -11.703125 C 8.53125 -11.492188 8.890625 -11.226562 9.203125 -10.90625 C 9.515625 -10.582031 9.804688 -10.210938 10.078125 -9.796875 L 8.515625 -8.78125 C 8.148438 -9.320312 7.703125 -9.757812 7.171875 -10.09375 C 6.648438 -10.4375 6.007812 -10.570312 5.25 -10.5 C 4.6875 -10.445312 4.207031 -10.316406 3.8125 -10.109375 C 3.414062 -9.898438 3.09375 -9.640625 2.84375 -9.328125 C 2.59375 -9.015625 2.414062 -8.660156 2.3125 -8.265625 C 2.207031 -7.878906 2.179688 -7.460938 2.234375 -7.015625 L 2.4375 -4.78125 C 2.476562 -4.34375 2.585938 -3.929688 2.765625 -3.546875 C 2.953125 -3.171875 3.195312 -2.851562 3.5 -2.59375 C 3.8125 -2.332031 4.171875 -2.144531 4.578125 -2.03125 C 4.992188 -1.914062 5.46875 -1.882812 6 -1.9375 C 6.414062 -1.976562 6.789062 -2.078125 7.125 -2.234375 C 7.457031 -2.398438 7.726562 -2.609375 7.9375 -2.859375 C 8.15625 -3.117188 8.3125 -3.410156 8.40625 -3.734375 C 8.507812 -4.066406 8.546875 -4.410156 8.515625 -4.765625 L 8.46875 -5.1875 L 5.859375 -4.9375 L 5.71875 -6.515625 L 10.3125 -6.953125 L 10.875 -1.046875 Z M 9.734375 -0.9375 "/>
      </g>
    </g>
  </g>
  <g fill="#090a0e" fill-opacity="1">
    <g transform="translate(213.366735, 69.011547)">
      <g/>
    </g>
  </g>
  <g fill="#090a0e" fill-opacity="1">
    <g transform="translate(217.80489, 68.49908)">
      <g>
        <path
          d="M 1.328125 -0.171875 L -0.09375 -11.375 L 1.84375 -11.609375 L 3.265625 -0.40625 Z M 1.328125 -0.171875 "/>
      </g>
    </g>
  </g>
  <g fill="#090a0e" fill-opacity="1">
    <g transform="translate(222.512214, 67.942337)">
      <g>
        <path
          d="M 9.375 -1.375 L 3.15625 -7.25 L 2.046875 -8.40625 L 3.203125 -0.46875 L 1.328125 -0.1875 L -0.3125 -11.359375 L 1.375 -11.609375 L 7.453125 -5.671875 L 8.546875 -4.546875 L 7.375 -12.484375 L 9.265625 -12.765625 L 10.90625 -1.59375 Z M 9.375 -1.375 "/>
      </g>
    </g>
  </g>
  <g fill="#090a0e" fill-opacity="1">
    <g transform="translate(234.828859, 66.098525)">
      <g/>
    </g>
  </g>
  <g fill="#090a0e" fill-opacity="1">
    <g transform="translate(239.281447, 65.386706)">
      <g>
        <path
          d="M 8.75 -9.265625 C 8.832031 -8.816406 8.832031 -8.378906 8.75 -7.953125 C 8.675781 -7.535156 8.503906 -7.15625 8.234375 -6.8125 C 7.972656 -6.476562 7.609375 -6.1875 7.140625 -5.9375 C 6.679688 -5.695312 6.109375 -5.507812 5.421875 -5.375 L 2.453125 -4.828125 L 3.234375 -0.59375 L 1.328125 -0.25 L -0.71875 -11.359375 L 4.15625 -12.25 C 4.84375 -12.382812 5.445312 -12.414062 5.96875 -12.34375 C 6.488281 -12.28125 6.929688 -12.132812 7.296875 -11.90625 C 7.671875 -11.675781 7.96875 -11.382812 8.1875 -11.03125 C 8.40625 -10.675781 8.554688 -10.265625 8.640625 -9.796875 Z M 6.703125 -9.453125 C 6.617188 -9.898438 6.414062 -10.238281 6.09375 -10.46875 C 5.769531 -10.695312 5.273438 -10.75 4.609375 -10.625 L 1.484375 -10.046875 L 2.15625 -6.421875 L 5.328125 -7.015625 C 5.984375 -7.128906 6.414062 -7.351562 6.625 -7.6875 C 6.832031 -8.03125 6.894531 -8.425781 6.8125 -8.875 Z M 6.703125 -9.453125 "/>
      </g>
    </g>
  </g>
  <g fill="#090a0e" fill-opacity="1">
    <g transform="translate(250.210572, 63.36357)">
      <g>
        <path
          d="M 9.40625 -5.21875 C 9.507812 -4.71875 9.492188 -4.234375 9.359375 -3.765625 C 9.234375 -3.296875 9 -2.867188 8.65625 -2.484375 C 8.3125 -2.097656 7.878906 -1.753906 7.359375 -1.453125 C 6.847656 -1.160156 6.25 -0.941406 5.5625 -0.796875 C 4.59375 -0.597656 3.679688 -0.585938 2.828125 -0.765625 C 1.972656 -0.953125 1.09375 -1.269531 0.1875 -1.71875 L 1.140625 -3.359375 C 1.566406 -3.128906 1.960938 -2.941406 2.328125 -2.796875 C 2.703125 -2.660156 3.066406 -2.5625 3.421875 -2.5 C 3.785156 -2.4375 4.140625 -2.410156 4.484375 -2.421875 C 4.828125 -2.429688 5.195312 -2.476562 5.59375 -2.5625 C 6.351562 -2.71875 6.882812 -2.988281 7.1875 -3.375 C 7.5 -3.757812 7.601562 -4.179688 7.5 -4.640625 C 7.414062 -5.046875 7.175781 -5.328125 6.78125 -5.484375 C 6.382812 -5.648438 5.898438 -5.753906 5.328125 -5.796875 C 4.753906 -5.835938 4.144531 -5.867188 3.5 -5.890625 C 2.851562 -5.910156 2.234375 -5.984375 1.640625 -6.109375 C 1.054688 -6.234375 0.546875 -6.457031 0.109375 -6.78125 C -0.316406 -7.113281 -0.597656 -7.609375 -0.734375 -8.265625 C -0.828125 -8.722656 -0.816406 -9.175781 -0.703125 -9.625 C -0.585938 -10.082031 -0.363281 -10.503906 -0.03125 -10.890625 C 0.289062 -11.273438 0.710938 -11.613281 1.234375 -11.90625 C 1.765625 -12.195312 2.375 -12.414062 3.0625 -12.5625 C 4.101562 -12.78125 5.0625 -12.78125 5.9375 -12.5625 C 6.8125 -12.34375 7.550781 -11.945312 8.15625 -11.375 L 7.0625 -9.96875 C 6.539062 -10.363281 5.96875 -10.648438 5.34375 -10.828125 C 4.726562 -11.015625 4.082031 -11.035156 3.40625 -10.890625 C 2.644531 -10.734375 2.050781 -10.46875 1.625 -10.09375 C 1.195312 -9.71875 1.03125 -9.300781 1.125 -8.84375 C 1.1875 -8.570312 1.335938 -8.363281 1.578125 -8.21875 C 1.828125 -8.070312 2.132812 -7.957031 2.5 -7.875 C 2.875 -7.789062 3.289062 -7.734375 3.75 -7.703125 C 4.207031 -7.679688 4.671875 -7.648438 5.140625 -7.609375 C 5.617188 -7.566406 6.09375 -7.507812 6.5625 -7.4375 C 7.03125 -7.363281 7.457031 -7.238281 7.84375 -7.0625 C 8.238281 -6.894531 8.570312 -6.664062 8.84375 -6.375 C 9.113281 -6.082031 9.300781 -5.695312 9.40625 -5.21875 Z M 9.40625 -5.21875 "/>
      </g>
    </g>
  </g>
  <g fill="#090a0e" fill-opacity="1">
    <g transform="translate(261.133018, 61.049086)">
      <g>
        <path
          d="M 5.21875 -5.921875 L 6.28125 -1.5 L 4.375 -1.046875 L 3.3125 -5.484375 L -2.59375 -10.984375 L -0.40625 -11.515625 L 3.984375 -7.203125 L 5.828125 -13 L 7.921875 -13.5 Z M 5.21875 -5.921875 "/>
      </g>
    </g>
  </g>
  <g fill="#090a0e" fill-opacity="1">
    <g transform="translate(271.849026, 58.4957)">
      <g>
        <path
          d="M 7.078125 -10.046875 C 6.867188 -10.273438 6.632812 -10.484375 6.375 -10.671875 C 6.125 -10.859375 5.84375 -11.007812 5.53125 -11.125 C 5.226562 -11.25 4.898438 -11.320312 4.546875 -11.34375 C 4.203125 -11.363281 3.832031 -11.320312 3.4375 -11.21875 C 2.90625 -11.082031 2.460938 -10.878906 2.109375 -10.609375 C 1.753906 -10.347656 1.476562 -10.039062 1.28125 -9.6875 C 1.082031 -9.34375 0.96875 -8.960938 0.9375 -8.546875 C 0.90625 -8.128906 0.953125 -7.691406 1.078125 -7.234375 L 1.625 -5.125 C 1.75 -4.675781 1.929688 -4.285156 2.171875 -3.953125 C 2.410156 -3.617188 2.703125 -3.347656 3.046875 -3.140625 C 3.398438 -2.929688 3.800781 -2.804688 4.25 -2.765625 C 4.695312 -2.722656 5.1875 -2.769531 5.71875 -2.90625 C 6.476562 -3.113281 7.0625 -3.476562 7.46875 -4 C 7.875 -4.519531 8.132812 -5.109375 8.25 -5.765625 L 9.984375 -5.46875 C 9.929688 -5.039062 9.8125 -4.613281 9.625 -4.1875 C 9.4375 -3.757812 9.179688 -3.359375 8.859375 -2.984375 C 8.535156 -2.609375 8.144531 -2.265625 7.6875 -1.953125 C 7.226562 -1.648438 6.6875 -1.414062 6.0625 -1.25 C 5.238281 -1.03125 4.476562 -0.957031 3.78125 -1.03125 C 3.082031 -1.113281 2.460938 -1.316406 1.921875 -1.640625 C 1.378906 -1.972656 0.914062 -2.394531 0.53125 -2.90625 C 0.15625 -3.425781 -0.117188 -4.015625 -0.296875 -4.671875 L -0.8125 -6.65625 C -0.988281 -7.3125 -1.039062 -7.960938 -0.96875 -8.609375 C -0.90625 -9.265625 -0.707031 -9.867188 -0.375 -10.421875 C -0.0507812 -10.984375 0.390625 -11.476562 0.953125 -11.90625 C 1.523438 -12.332031 2.222656 -12.65625 3.046875 -12.875 C 3.628906 -13.03125 4.191406 -13.085938 4.734375 -13.046875 C 5.285156 -13.015625 5.796875 -12.914062 6.265625 -12.75 C 6.742188 -12.582031 7.171875 -12.363281 7.546875 -12.09375 C 7.921875 -11.820312 8.226562 -11.515625 8.46875 -11.171875 Z M 7.078125 -10.046875 "/>
      </g>
    </g>
  </g>
  <g fill="#090a0e" fill-opacity="1">
    <g transform="translate(283.176343, 55.482285)">
      <g>
        <path
          d="M 8.734375 -2.59375 L 7.34375 -7.28125 L 1.765625 -5.625 L 3.15625 -0.9375 L 1.28125 -0.375 L -1.9375 -11.203125 L -0.0625 -11.765625 L 1.296875 -7.1875 L 6.875 -8.84375 L 5.515625 -13.421875 L 7.390625 -13.96875 L 10.609375 -3.140625 Z M 8.734375 -2.59375 "/>
      </g>
    </g>
  </g>
  <g fill="#090a0e" fill-opacity="1">
    <g transform="translate(295.212513, 51.908954)">
      <g>
        <path
          d="M 9.234375 -7.6875 C 9.429688 -7.09375 9.507812 -6.484375 9.46875 -5.859375 C 9.4375 -5.234375 9.285156 -4.644531 9.015625 -4.09375 C 8.742188 -3.539062 8.34375 -3.039062 7.8125 -2.59375 C 7.28125 -2.144531 6.628906 -1.796875 5.859375 -1.546875 C 5.078125 -1.285156 4.34375 -1.179688 3.65625 -1.234375 C 2.976562 -1.285156 2.359375 -1.453125 1.796875 -1.734375 C 1.242188 -2.015625 0.769531 -2.394531 0.375 -2.875 C -0.0078125 -3.351562 -0.300781 -3.890625 -0.5 -4.484375 L -1.265625 -6.828125 C -1.472656 -7.441406 -1.554688 -8.054688 -1.515625 -8.671875 C -1.484375 -9.296875 -1.328125 -9.878906 -1.046875 -10.421875 C -0.765625 -10.972656 -0.363281 -11.46875 0.15625 -11.90625 C 0.6875 -12.351562 1.34375 -12.707031 2.125 -12.96875 C 2.894531 -13.21875 3.625 -13.316406 4.3125 -13.265625 C 5 -13.222656 5.613281 -13.0625 6.15625 -12.78125 C 6.707031 -12.507812 7.175781 -12.132812 7.5625 -11.65625 C 7.957031 -11.1875 8.257812 -10.644531 8.46875 -10.03125 Z M 6.59375 -9.4375 C 6.46875 -9.832031 6.28125 -10.179688 6.03125 -10.484375 C 5.78125 -10.796875 5.488281 -11.046875 5.15625 -11.234375 C 4.820312 -11.421875 4.441406 -11.523438 4.015625 -11.546875 C 3.597656 -11.566406 3.144531 -11.5 2.65625 -11.34375 C 2.15625 -11.175781 1.742188 -10.957031 1.421875 -10.6875 C 1.097656 -10.425781 0.847656 -10.117188 0.671875 -9.765625 C 0.503906 -9.421875 0.414062 -9.050781 0.40625 -8.65625 C 0.40625 -8.257812 0.46875 -7.863281 0.59375 -7.46875 L 1.375 -5.09375 C 1.507812 -4.695312 1.695312 -4.34375 1.9375 -4.03125 C 2.175781 -3.71875 2.46875 -3.46875 2.8125 -3.28125 C 3.15625 -3.101562 3.535156 -3 3.953125 -2.96875 C 4.367188 -2.9375 4.828125 -3.003906 5.328125 -3.171875 C 5.816406 -3.328125 6.222656 -3.539062 6.546875 -3.8125 C 6.878906 -4.09375 7.125 -4.40625 7.28125 -4.75 C 7.445312 -5.09375 7.535156 -5.460938 7.546875 -5.859375 C 7.566406 -6.265625 7.507812 -6.664062 7.375 -7.0625 Z M 6.59375 -9.4375 "/>
      </g>
    </g>
  </g>
  <g fill="#090a0e" fill-opacity="1">
    <g transform="translate(306.818909, 48.088253)">
      <g>
        <path
          d="M 1.265625 -0.453125 L -2.53125 -11.09375 L -0.6875 -11.75 L 2.53125 -2.71875 L 8.671875 -4.90625 L 9.25 -3.296875 Z M 1.265625 -0.453125 "/>
      </g>
    </g>
  </g>
  <g fill="#090a0e" fill-opacity="1">
    <g transform="translate(316.605569, 44.605766)">
      <g>
        <path
          d="M 8.828125 -8.15625 C 9.054688 -7.570312 9.164062 -6.96875 9.15625 -6.34375 C 9.15625 -5.71875 9.03125 -5.117188 8.78125 -4.546875 C 8.53125 -3.984375 8.15625 -3.46875 7.65625 -3 C 7.15625 -2.53125 6.523438 -2.148438 5.765625 -1.859375 C 4.992188 -1.554688 4.265625 -1.410156 3.578125 -1.421875 C 2.890625 -1.429688 2.265625 -1.5625 1.703125 -1.8125 C 1.140625 -2.070312 0.648438 -2.429688 0.234375 -2.890625 C -0.179688 -3.347656 -0.503906 -3.867188 -0.734375 -4.453125 L -1.625 -6.75 C -1.851562 -7.351562 -1.96875 -7.96875 -1.96875 -8.59375 C -1.96875 -9.21875 -1.84375 -9.804688 -1.59375 -10.359375 C -1.34375 -10.921875 -0.96875 -11.4375 -0.46875 -11.90625 C 0.03125 -12.375 0.664062 -12.757812 1.4375 -13.0625 C 2.195312 -13.351562 2.921875 -13.492188 3.609375 -13.484375 C 4.296875 -13.472656 4.921875 -13.34375 5.484375 -13.09375 C 6.046875 -12.851562 6.535156 -12.503906 6.953125 -12.046875 C 7.378906 -11.585938 7.707031 -11.054688 7.9375 -10.453125 Z M 6.09375 -9.75 C 5.9375 -10.144531 5.726562 -10.492188 5.46875 -10.796875 C 5.207031 -11.097656 4.90625 -11.328125 4.5625 -11.484375 C 4.21875 -11.648438 3.832031 -11.734375 3.40625 -11.734375 C 2.988281 -11.742188 2.535156 -11.65625 2.046875 -11.46875 C 1.554688 -11.28125 1.15625 -11.039062 0.84375 -10.75 C 0.539062 -10.457031 0.316406 -10.132812 0.171875 -9.78125 C 0.0234375 -9.4375 -0.0390625 -9.066406 -0.03125 -8.671875 C -0.0195312 -8.273438 0.0625 -7.878906 0.21875 -7.484375 L 1.109375 -5.15625 C 1.265625 -4.769531 1.46875 -4.425781 1.71875 -4.125 C 1.976562 -3.820312 2.28125 -3.585938 2.625 -3.421875 C 2.976562 -3.253906 3.363281 -3.164062 3.78125 -3.15625 C 4.207031 -3.15625 4.664062 -3.25 5.15625 -3.4375 C 5.644531 -3.625 6.039062 -3.863281 6.34375 -4.15625 C 6.65625 -4.445312 6.878906 -4.769531 7.015625 -5.125 C 7.160156 -5.476562 7.226562 -5.851562 7.21875 -6.25 C 7.21875 -6.644531 7.140625 -7.035156 6.984375 -7.421875 Z M 6.09375 -9.75 "/>
      </g>
    </g>
  </g>
  <g fill="#090a0e" fill-opacity="1">
    <g transform="translate(328.011588, 40.1923)">
      <g>
        <path
          d="M 9.015625 -3.78125 L 8.203125 -4.875 C 8.046875 -4.25 7.753906 -3.679688 7.328125 -3.171875 C 6.898438 -2.671875 6.328125 -2.269531 5.609375 -1.96875 C 4.867188 -1.65625 4.160156 -1.492188 3.484375 -1.484375 C 2.804688 -1.484375 2.179688 -1.609375 1.609375 -1.859375 C 1.046875 -2.109375 0.546875 -2.46875 0.109375 -2.9375 C -0.316406 -3.40625 -0.660156 -3.953125 -0.921875 -4.578125 L -1.71875 -6.484375 C -1.976562 -7.109375 -2.113281 -7.75 -2.125 -8.40625 C -2.144531 -9.0625 -2.035156 -9.6875 -1.796875 -10.28125 C -1.554688 -10.875 -1.179688 -11.421875 -0.671875 -11.921875 C -0.171875 -12.421875 0.46875 -12.832031 1.25 -13.15625 C 1.8125 -13.394531 2.347656 -13.546875 2.859375 -13.609375 C 3.367188 -13.679688 3.84375 -13.675781 4.28125 -13.59375 C 4.726562 -13.507812 5.148438 -13.359375 5.546875 -13.140625 C 5.941406 -12.929688 6.328125 -12.664062 6.703125 -12.34375 L 5.546875 -10.921875 C 5.023438 -11.328125 4.460938 -11.609375 3.859375 -11.765625 C 3.253906 -11.929688 2.601562 -11.867188 1.90625 -11.578125 C 1.382812 -11.359375 0.960938 -11.09375 0.640625 -10.78125 C 0.316406 -10.46875 0.0859375 -10.125 -0.046875 -9.75 C -0.191406 -9.382812 -0.253906 -9 -0.234375 -8.59375 C -0.210938 -8.1875 -0.113281 -7.773438 0.0625 -7.359375 L 0.921875 -5.296875 C 1.097656 -4.890625 1.328125 -4.53125 1.609375 -4.21875 C 1.890625 -3.914062 2.210938 -3.6875 2.578125 -3.53125 C 2.941406 -3.375 3.335938 -3.296875 3.765625 -3.296875 C 4.203125 -3.304688 4.664062 -3.410156 5.15625 -3.609375 C 5.539062 -3.773438 5.867188 -3.988281 6.140625 -4.25 C 6.410156 -4.507812 6.609375 -4.789062 6.734375 -5.09375 C 6.859375 -5.40625 6.921875 -5.726562 6.921875 -6.0625 C 6.929688 -6.40625 6.867188 -6.738281 6.734375 -7.0625 L 6.578125 -7.453125 L 4.15625 -6.4375 L 3.53125 -7.90625 L 7.78125 -9.6875 L 10.078125 -4.21875 Z M 9.015625 -3.78125 "/>
      </g>
    </g>
  </g>
  <g fill="#090a0e" fill-opacity="1">
    <g transform="translate(339.139207, 35.517698)">
      <g>
        <path
          d="M 4 -6.796875 L 5.875 -2.65625 L 4.109375 -1.84375 L 2.234375 -6 L -4.609375 -10.3125 L -2.5625 -11.234375 L 2.5625 -7.84375 L 3.28125 -13.875 L 5.25 -14.75 Z M 4 -6.796875 "/>
      </g>
    </g>
  </g>
  <g fill="#090a0e" fill-opacity="1">
    <g transform="translate(349.126385, 30.981299)">
      <g/>
    </g>
  </g>
</svg>
